<svg width="29" height="37" viewBox="0 0 29 37" fill="none" xmlns="http://www.w3.org/2000/svg">
<path d="M10.5 18.4922C10.5 18.273 10.5802 18.0701 10.7119 17.9268L17.3574 10.7021C17.4879 10.5659 17.653 10.4986 17.8154 10.5C17.9786 10.5015 18.1444 10.5726 18.2734 10.7129C18.4036 10.8545 18.4835 11.054 18.4854 11.2705C18.4867 11.4332 18.4441 11.5879 18.3682 11.7158L18.2822 11.834L12.4697 18.1543L12.1582 18.4922L12.4697 18.8311L18.2881 25.1572C18.4197 25.3005 18.5 25.5036 18.5 25.7227C18.4999 25.9415 18.4196 26.1439 18.2881 26.2871C18.1577 26.4289 17.99 26.4999 17.8252 26.5C17.6602 26.5 17.4918 26.429 17.3613 26.2871L10.7119 19.0576C10.5802 18.9143 10.5 18.7113 10.5 18.4922Z" fill="white" stroke="white"/>
</svg>
